<?xml version="1.0" encoding="UTF-8" standalone="no"?>
<!-- Created with Inkscape (http://www.inkscape.org/) -->

<svg
   width="210mm"
   height="297mm"
   viewBox="0 0 210 297"
   version="1.1"
   id="svg1"
   xml:space="preserve"
   xmlns="http://www.w3.org/2000/svg"
   xmlns:svg="http://www.w3.org/2000/svg"><defs
     id="defs1"><rect
       x="216.02693"
       y="242.00485"
       width="407.44321"
       height="139.46042"
       id="rect5" /></defs><g
     id="motor1"
     transform="translate(87.906212,111.42022)"><g
       id="motor1-group"><path
         style="fill:#333333;stroke-width:0.499999;stroke-linejoin:round"
         d="M 2,0 0,1.9999999 v 2.9999998 l 2,2 V 17.999999 l 3,1 h 17.000001 l 3,-1 V 6.9999998 l 2,-1.9999999 v -3 L 25.000001,0 Z"
         id="motor1-dark" /><path
         style="fill:#4d4d4d;stroke-width:0.499999;stroke-linejoin:round"
         d="M 3,0 1,1.9999999 v 2.9999998 l 2,2 v 9.9999993 l 3.0000001,2 H 21 l 3,-2 V 6.9999997 l 2,-2 V 1.9999999 L 24,0 Z"
         id="motor1-medium" /><path
         style="fill:#999999;stroke-width:0.499999;stroke-linejoin:round"
         d="M 4.0000002,0 2,1.9999999 v 2.9999998 l 2.0000002,2 v 9.9999993 l 3,2 H 20 l 3,-2 V 6.9999997 l 2,-2 V 1.9999999 L 23,0 Z"
         id="motor1-light" /></g></g><g
     id="textTest"><text
       xml:space="preserve"
       transform="matrix(0.26458333,0,0,0.26458333,18.64155,40.516443)"
       id="text5"
       style="font-weight:bold;font-size:68.7168px;line-height:0;font-family:Arial;-inkscape-font-specification:'Arial, Bold';white-space:pre;shape-inside:url(#rect5);fill:#1a1a1a;stroke-width:1.88976;stroke-linejoin:round"><tspan
         x="216.02734"
         y="260.95287"
         id="tspan1">19293</tspan></text></g></svg>
